<svg id="Layer_1" data-name="Layer 1" xmlns="http://www.w3.org/2000/svg" viewBox="0 0 904 142.67">
  <g>
    <g>
      <path d="M208,58q0-23.28,11.73-36.12T252.15,9q20.7,0,32.44,12.84T296.31,58V84.69q0,24-11.72,36.46t-32.44,12.5q-20.72,0-32.44-12.5T208,84.69Zm44.17,55.12a23.75,23.75,0,0,0,10.27-2,17.18,17.18,0,0,0,6.67-5.57,22.22,22.22,0,0,0,3.6-8.56,54.48,54.48,0,0,0,1-11V56.61A45,45,0,0,0,272.52,46a24.42,24.42,0,0,0-3.77-8.56,18.69,18.69,0,0,0-6.67-5.74,24.11,24.11,0,0,0-19.86,0,18.64,18.64,0,0,0-6.68,5.74A24.42,24.42,0,0,0,231.77,46a45.56,45.56,0,0,0-1.19,10.61V86.06a54.51,54.51,0,0,0,1,11,22.38,22.38,0,0,0,3.6,8.56,17.21,17.21,0,0,0,6.68,5.57A23.72,23.72,0,0,0,252.15,113.1Z"/>
      <path d="M335.81,86.06v45.19h-22.6V11.42h46.91a40,40,0,0,1,16.09,3,33.77,33.77,0,0,1,11.39,7.88,33.21,33.21,0,0,1,6.85,11.12,36.55,36.55,0,0,1,2.31,12.76v4.11a38.38,38.38,0,0,1-2.31,13.09,34.64,34.64,0,0,1-6.85,11.47A33.5,33.5,0,0,1,376.21,83a38.81,38.81,0,0,1-16.09,3.09Zm0-21.57H357.9q7.53,0,11.89-4.11a13.93,13.93,0,0,0,4.37-10.62v-2a13.9,13.9,0,0,0-4.37-10.61Q365.42,33,357.9,33H335.81Z"/>
      <path d="M405.8,11.42h86.28V33H460.24v98.26h-22.6V33H405.8Z"/>
      <path d="M503.59,11.42h80.12V33H555v76.69h28.76v21.57H503.59V109.68h28.76V33H503.59Z"/>
      <path d="M600.71,11.42h39.72l6.85,90v17.46h4.11V101.46l6.84-90H698V131.25H677.41V51.13l2.05-27.39h-4.11l-8.9,107.51h-33.9L623.31,23.74H619.2l2.06,27.39v80.12H600.71Z"/>
      <path d="M799.65,11.42v78.4q0,20.55-10.88,32.19T756.5,133.65q-21.39,0-32.27-11.64T713.36,89.82V11.42H736v78.4q0,10.62,5,16.61t15.57,6q10.62,0,15.58-6t5-16.61V11.42Z"/>
      <path d="M877.35,48.05a16.74,16.74,0,0,0-5.57-12.5q-5.56-5.29-15.66-5.3-8.57,0-13.52,3.51a11,11,0,0,0-5,9.5,12.6,12.6,0,0,0,1.2,5.56A11.41,11.41,0,0,0,843,53.27a32,32,0,0,0,7.88,3.51,103,103,0,0,0,12.41,2.91q18.83,3.44,28.76,11.47T902,95V97a36.91,36.91,0,0,1-3,15.15,31.94,31.94,0,0,1-8.64,11.56,39.46,39.46,0,0,1-13.7,7.36,65.91,65.91,0,0,1-38.94-.77,41.66,41.66,0,0,1-15-9.25,38.76,38.76,0,0,1-9.07-13.86,47.64,47.64,0,0,1-3.09-17.38V84.69h22.6v4.1q0,10.78,6.25,17.21t19.43,6.42q10.27,0,15.24-4.45a13.83,13.83,0,0,0,5-10.62,15.19,15.19,0,0,0-1-5.56A11.79,11.79,0,0,0,874.44,87a24.8,24.8,0,0,0-7-3.85,62.13,62.13,0,0,0-11.3-2.91,114.2,114.2,0,0,1-16.61-4,46.05,46.05,0,0,1-13.09-6.59,28.43,28.43,0,0,1-8.65-10.27,33.49,33.49,0,0,1-3.08-15.06v-1a31,31,0,0,1,3-13.61,32.75,32.75,0,0,1,8.39-10.87,38.69,38.69,0,0,1,13-7.19,53.1,53.1,0,0,1,17-2.57A54.71,54.71,0,0,1,875,12a40.23,40.23,0,0,1,13.78,8.13A33.89,33.89,0,0,1,897.12,32,35.72,35.72,0,0,1,900,46v6.16h-22.6Z"/>
    </g>
    <g>
      <path d="M139.81,57.55c-3.46-17.22-12.7-31-27-41.32C96.08,4.17,77.36.18,57.26,4.44,35.29,9.1,19,21.7,8.92,41.89,1.82,56.07.34,71,3.77,86.35c4,17.72,13.75,31.68,28.78,41.8a66.35,66.35,0,0,0,39.38,11.71c1.36,0,2.73,0,4.09,0s2.73-.18,4.09-.35c19.11-2.42,34.8-11.11,46.67-26.25C139.69,96.78,143.9,78,139.81,57.55ZM95.14,113.49c-24.34,13.82-58,4.07-67.88-25.11C21,70,23.93,52.8,37.11,38.13,45.59,28.69,56.59,24,69.3,23.4a46.42,46.42,0,0,1,32,10.11c9.8,7.78,15.36,18.06,17.16,30.39.36,2.46.45,4.95.65,7.31C118.56,89.62,111.37,104.28,95.14,113.49Z"/>
      <path d="M71.34,56.36c-7.79,0-14.48,7-14.47,15.09s6.82,15,14.63,15a15,15,0,1,0-.16-30Z"/>
    </g>
  </g>
</svg>
