<svg id="Layer_1" data-name="Layer 1" xmlns="http://www.w3.org/2000/svg" xmlns:xlink="http://www.w3.org/1999/xlink" viewBox="0 0 512 512">
  <defs>
    <style>
      .cls-1 {
        fill: none;
      }

      .cls-2, .cls-6 {
        isolation: isolate;
      }

      .cls-3 {
        clip-path: url(#clip-path);
      }

      .cls-4 {
        fill: #002c85;
      }

      .cls-5 {
        fill: #0052fa;
      }

      .cls-10, .cls-6 {
        opacity: 0.3;
      }

      .cls-7 {
        clip-path: url(#clip-path-2);
      }

      .cls-8 {
        fill: #fafafa;
      }

      .cls-9 {
        fill: #fff;
      }

      .cls-11 {
        clip-path: url(#clip-path-3);
      }
    </style>
    <clipPath id="clip-path">
      <path class="cls-1" d="M425.6,439.53l-44.72,32.75a171.83,171.83,0,0,1-21.07,13.21,179.65,179.65,0,0,1-23.55,10.39,191.82,191.82,0,0,1-25.92,7.25,207.24,207.24,0,0,1-28.13,3.78c-31.79,2.11-63.79-2.78-94.34-13.51a280.58,280.58,0,0,1-85.55-48.79A286.12,286.12,0,0,1,37.92,369c-16.6-28.43-27.85-59.54-32.27-91.86a217.1,217.1,0,0,1-2-34.83A196.59,196.59,0,0,1,7.14,209.8a182.72,182.72,0,0,1,8.46-29.92A173,173,0,0,1,28.53,153l28.21-47.71a173.85,173.85,0,0,0-13.21,27.67A184,184,0,0,0,35,163.74a200.91,200.91,0,0,0-3.38,33.66A224.94,224.94,0,0,0,34,233.5c4.87,33.56,16.84,66,34.38,95.65a305.37,305.37,0,0,0,67.76,79.15,298.66,298.66,0,0,0,89.52,51.49c31.87,11.43,65.18,16.77,98.15,14.85a213.16,213.16,0,0,0,29.14-3.7,194.55,194.55,0,0,0,26.78-7.31A181.93,181.93,0,0,0,404,453,173.07,173.07,0,0,0,425.6,439.53Z"/>
    </clipPath>
    <clipPath id="clip-path-2">
      <path d="M413,413.91q-5.58,4.23-11.15,8.47a153.35,153.35,0,0,0,33.3-34.77,159.09,159.09,0,0,0,21-43A175.54,175.54,0,0,0,464,295.91a203.17,203.17,0,0,0-5.84-52.46,238.84,238.84,0,0,0-31.85-73.4,267.57,267.57,0,0,0-52.65-59.49,263.81,263.81,0,0,0-67.46-41.35A229.37,229.37,0,0,0,229.1,51.35a194.51,194.51,0,0,0-47.29,3.31,169.57,169.57,0,0,0-42.29,14.23,156.93,156.93,0,0,0-35.9,24.32,153.73,153.73,0,0,0-27.87,33.54l7.34-11.92A153.27,153.27,0,0,1,111.15,81.1a157.6,157.6,0,0,1,36.17-24.4A171.16,171.16,0,0,1,190,42.51a196.48,196.48,0,0,1,47.7-3.17,232,232,0,0,1,77.82,18.24,268.18,268.18,0,0,1,68.14,41.87,272.52,272.52,0,0,1,53.25,60.08,242.6,242.6,0,0,1,32.35,74.07,205.56,205.56,0,0,1,6.06,52.89,176.25,176.25,0,0,1-7.81,49.12,159.42,159.42,0,0,1-21,43.3A153.45,153.45,0,0,1,413,413.91Z"/>
    </clipPath>
    <clipPath id="clip-path-3">
      <path d="M305,263.45l-9.77,10.06a27.75,27.75,0,0,1-4.34,3.66,29.67,29.67,0,0,1-5.12,2.78,31.8,31.8,0,0,1-5.82,1.8,35,35,0,0,1-6.43.7,37,37,0,0,1-14.31-2.89,48.1,48.1,0,0,1-13-8.1A50.8,50.8,0,0,1,236,259.57a42.92,42.92,0,0,1-5.62-14.26,36.15,36.15,0,0,1-.63-7.74,32.74,32.74,0,0,1,1-7.23,30.64,30.64,0,0,1,2.44-6.52,29.23,29.23,0,0,1,3.74-5.62L246,207.51a28.64,28.64,0,0,0-3.76,5.65,31.29,31.29,0,0,0-2.45,6.57,33.29,33.29,0,0,0-1,7.29,36.91,36.91,0,0,0,.66,7.81,43.36,43.36,0,0,0,5.71,14.39,51.55,51.55,0,0,0,10.26,12,49,49,0,0,0,13.19,8.2,37.31,37.31,0,0,0,14.45,2.95,34.77,34.77,0,0,0,6.48-.69,31,31,0,0,0,5.87-1.8,29,29,0,0,0,5.15-2.79A28.12,28.12,0,0,0,305,263.45Z"/>
    </clipPath>
  </defs>
  <g class="cls-2">
    <g class="cls-2">
      <g class="cls-3">
        <g class="cls-2">
          <path class="cls-4" d="M425.6,439.53l-44.72,32.75a171.83,171.83,0,0,1-21.07,13.21,179.65,179.65,0,0,1-23.55,10.39,191.82,191.82,0,0,1-25.92,7.25,207.24,207.24,0,0,1-28.13,3.78c-31.79,2.11-63.79-2.78-94.34-13.51a280.58,280.58,0,0,1-85.55-48.79A286.12,286.12,0,0,1,37.92,369c-16.6-28.43-27.85-59.54-32.27-91.86a217.1,217.1,0,0,1-2-34.83A196.59,196.59,0,0,1,7.14,209.8a182.72,182.72,0,0,1,8.46-29.92A173,173,0,0,1,28.53,153l28.21-47.71a173.85,173.85,0,0,0-13.21,27.67A184,184,0,0,0,35,163.74a200.91,200.91,0,0,0-3.38,33.66A224.94,224.94,0,0,0,34,233.5c4.87,33.56,16.84,66,34.38,95.65a305.37,305.37,0,0,0,67.76,79.15,298.66,298.66,0,0,0,89.52,51.49c31.87,11.43,65.18,16.77,98.15,14.85a213.16,213.16,0,0,0,29.14-3.7,194.55,194.55,0,0,0,26.78-7.31A181.93,181.93,0,0,0,404,453a173.07,173.07,0,0,0,21.65-13.51"/>
        </g>
      </g>
    </g>
    <path class="cls-5" d="M231.58,19.65A261.92,261.92,0,0,1,318,40.53a301.88,301.88,0,0,1,75.55,46.69,307,307,0,0,1,59.23,66.64A273.47,273.47,0,0,1,489.22,236c7.55,29.77,9.13,58.59,5.4,85.33a181,181,0,0,1-27.31,74.13,169.38,169.38,0,0,1-57.92,54.58c-24.38,14-53.22,22.69-85.63,24.58-33,1.92-66.28-3.42-98.15-14.85a298.66,298.66,0,0,1-89.52-51.49,305.37,305.37,0,0,1-67.76-79.15C50.79,299.46,38.82,267.06,34,233.5c-4.79-33-2.22-63.87,6.37-91.25A171.88,171.88,0,0,1,81.53,72.92a174.58,174.58,0,0,1,66.4-42.14C173.08,21.8,201.29,17.79,231.58,19.65Z"/>
  </g>
  <g class="cls-6">
    <path d="M413,413.91q-5.58,4.23-11.15,8.47a153.35,153.35,0,0,0,33.3-34.77,159.09,159.09,0,0,0,21-43A175.54,175.54,0,0,0,464,295.91a203.17,203.17,0,0,0-5.84-52.46,238.84,238.84,0,0,0-31.85-73.4,267.57,267.57,0,0,0-52.65-59.49,263.81,263.81,0,0,0-67.46-41.35A229.37,229.37,0,0,0,229.1,51.35a194.51,194.51,0,0,0-47.29,3.31,169.57,169.57,0,0,0-42.29,14.23,156.93,156.93,0,0,0-35.9,24.32,153.73,153.73,0,0,0-27.87,33.54l7.34-11.92A153.27,153.27,0,0,1,111.15,81.1a157.6,157.6,0,0,1,36.17-24.4A171.16,171.16,0,0,1,190,42.51a196.48,196.48,0,0,1,47.7-3.17,232,232,0,0,1,77.82,18.24,268.18,268.18,0,0,1,68.14,41.87,272.52,272.52,0,0,1,53.25,60.08,242.6,242.6,0,0,1,32.35,74.07,205.56,205.56,0,0,1,6.06,52.89,176.25,176.25,0,0,1-7.81,49.12,159.42,159.42,0,0,1-21,43.3A153.45,153.45,0,0,1,413,413.91Z"/>
    <g class="cls-7">
      <path d="M413,413.91l-11.15,8.47a153.35,153.35,0,0,0,33.3-34.77,159.09,159.09,0,0,0,21-43A175.54,175.54,0,0,0,464,295.91a203.17,203.17,0,0,0-5.84-52.46,238.84,238.84,0,0,0-31.85-73.4,267.57,267.57,0,0,0-52.65-59.49,263.81,263.81,0,0,0-67.46-41.35A229.37,229.37,0,0,0,229.1,51.35a194.51,194.51,0,0,0-47.29,3.31,169.57,169.57,0,0,0-42.29,14.23,156.93,156.93,0,0,0-35.9,24.32,153.73,153.73,0,0,0-27.87,33.54l7.34-11.92A153.27,153.27,0,0,1,111.15,81.1a157.6,157.6,0,0,1,36.17-24.4A171.16,171.16,0,0,1,190,42.51a196.48,196.48,0,0,1,47.7-3.17,232,232,0,0,1,77.82,18.24,268.18,268.18,0,0,1,68.14,41.87,272.52,272.52,0,0,1,53.25,60.08,242.6,242.6,0,0,1,32.35,74.07,205.56,205.56,0,0,1,6.06,52.89,176.25,176.25,0,0,1-7.81,49.12,159.42,159.42,0,0,1-21,43.3,153.45,153.45,0,0,1-33.47,35"/>
    </g>
  </g>
  <g>
    <g>
      <path class="cls-8" d="M267.84,197.66a42.47,42.47,0,0,1,15.05,3,49.21,49.21,0,0,1,13.32,8,50,50,0,0,1,10.27,11.73,44.29,44.29,0,0,1,5.88,14.39,35,35,0,0,1,.12,14.36,29.18,29.18,0,0,1-5.42,11.9A28.11,28.11,0,0,1,297,269.22a32.57,32.57,0,0,1-13.87,3.18,37.31,37.31,0,0,1-14.45-2.95,49,49,0,0,1-13.19-8.2,51.55,51.55,0,0,1-10.26-12,43.36,43.36,0,0,1-5.71-14.39,35.28,35.28,0,0,1,.14-14.39,30.5,30.5,0,0,1,5.51-11.87,27.81,27.81,0,0,1,9.77-8A28.64,28.64,0,0,1,267.84,197.66Z"/>
      <path class="cls-9" d="M426.28,203a215.5,215.5,0,0,1,11.79,35.5,166.51,166.51,0,0,1,4.48,34.49,142.32,142.32,0,0,1-14.34,65.82,136.52,136.52,0,0,1-16.66,26.53,121,121,0,0,1-21.8,21.06,127.73,127.73,0,0,1-27,15.37,157.9,157.9,0,0,1-32.24,9.51c-.82.15-1.65.3-2.48.43s-1.67.27-2.5.38l-2.52.33c-.85.1-1.69.19-2.54.27l-1,.08-1,.08-1,.06-1,.05-1.58.06-1.57.06-1.59.06-1.58.06-1,.07-1,.06-1,.06-1,.05a166.91,166.91,0,0,1-26.16-.86,175.38,175.38,0,0,1-26.14-5,195.71,195.71,0,0,1-26-9,225,225,0,0,1-25.67-13,241.94,241.94,0,0,1-31.32-21.8,219.62,219.62,0,0,1-26.61-25.91A211.13,211.13,0,0,1,122.66,308a217.48,217.48,0,0,1-16.27-33.46,206.76,206.76,0,0,1-9.12-30.08,167.65,167.65,0,0,1-3.83-29.22A145.83,145.83,0,0,1,95,187.08a139.14,139.14,0,0,1,7-27,147.29,147.29,0,0,1,17.16-33.38,120.7,120.7,0,0,1,23.58-25.34A124.48,124.48,0,0,1,172.39,83.8a157.38,157.38,0,0,1,35.49-10.06q4.53-.76,9.05-1.27c3-.34,6-.61,9-.79s6-.28,9-.31,5.95,0,8.92.16a171.16,171.16,0,0,1,25.33,3,182.25,182.25,0,0,1,25.06,6.79A206.9,206.9,0,0,1,319,91.85,247.82,247.82,0,0,1,343.64,106,242.08,242.08,0,0,1,370,125.86a217.81,217.81,0,0,1,22.58,22.69,208,208,0,0,1,18.8,25.65A212.86,212.86,0,0,1,426.28,203Zm-73,138.45a90.06,90.06,0,0,0,20.91-20.83,82.81,82.81,0,0,0,12-24.93,104.84,104.84,0,0,0,3.93-28.6,159.88,159.88,0,0,0-3.26-31.84c-.44-1.43-.87-2.88-1.29-4.33s-.85-2.93-1.29-4.4-.89-2.95-1.37-4.43-1-3-1.51-4.43a158.46,158.46,0,0,0-9.49-21.16,146.71,146.71,0,0,0-27.61-36.29,160.39,160.39,0,0,0-18.38-15.11A157.28,157.28,0,0,0,308,134.13a135.51,135.51,0,0,0-18.35-7.9,127.76,127.76,0,0,0-18.81-5,129.7,129.7,0,0,0-19.31-2l-1.5,0-1.51,0h-3a118.5,118.5,0,0,0-21.67,2.17,91.6,91.6,0,0,0-19.48,6.1,79.8,79.8,0,0,0-17.06,10.26,82,82,0,0,0-14.38,14.66,102.28,102.28,0,0,0-15.33,27.88A97.66,97.66,0,0,0,151.93,211a120.16,120.16,0,0,0,4.1,33.17,172.42,172.42,0,0,0,13.72,35.17,150.81,150.81,0,0,0,25,35.26A147.85,147.85,0,0,0,226.63,340a141.67,141.67,0,0,0,35.63,15,126,126,0,0,0,36.15,4.27,110.48,110.48,0,0,0,15-1.49,101.64,101.64,0,0,0,14.29-3.47A94.5,94.5,0,0,0,341,348.83a88.11,88.11,0,0,0,12.24-7.43"/>
    </g>
    <g class="cls-10">
      <path d="M386.82,235.2c-.44-1.43-.87-2.88-1.29-4.33s-.85-2.93-1.29-4.4-.89-2.95-1.37-4.43-1-3-1.51-4.43a158.46,158.46,0,0,0-9.49-21.16,146.71,146.71,0,0,0-27.61-36.29,160.39,160.39,0,0,0-18.38-15.11A157.28,157.28,0,0,0,308,134.13a135.51,135.51,0,0,0-18.35-7.9,127.76,127.76,0,0,0-18.81-5,129.7,129.7,0,0,0-19.31-2l-1.5,0-1.51,0h-3a118.5,118.5,0,0,0-21.67,2.17,91.6,91.6,0,0,0-19.48,6.1,79.8,79.8,0,0,0-17.06,10.26,82,82,0,0,0-14.38,14.66c-.13.17-.27.34-.4.52l-.39.52-.39.52c-.13.18-.26.35-.38.53l-8.27,11.34.38-.52.38-.52.39-.52c.13-.17.27-.34.4-.52a81.67,81.67,0,0,1,14.29-14.58,79.33,79.33,0,0,1,16.92-10.22,91.15,91.15,0,0,1,19.32-6.12,118.41,118.41,0,0,1,21.5-2.22h3l1.49,0c.5,0,1,0,1.49,0a128.55,128.55,0,0,1,19.14,2,126.81,126.81,0,0,1,18.64,4.85,135.64,135.64,0,0,1,18.17,7.78A154.37,154.37,0,0,1,316.27,156,156.17,156.17,0,0,1,334.46,171a143.93,143.93,0,0,1,27.28,35.93,157.31,157.31,0,0,1,9.34,21c.53,1.46,1,2.92,1.49,4.38s.91,2.93,1.34,4.39.85,2.92,1.26,4.36.84,2.88,1.27,4.3a159.9,159.9,0,0,1,3.13,29.15,108.55,108.55,0,0,1-2.83,26.47,83,83,0,0,1-26.18,43.6L361,335.19a83.05,83.05,0,0,0,26.26-43.91,109.22,109.22,0,0,0,2.78-26.68A162.27,162.27,0,0,0,386.82,235.2Z"/>
      <g class="cls-2">
        <path d="M305,263.45l-9.77,10.06a27.75,27.75,0,0,1-4.34,3.66,29.67,29.67,0,0,1-5.12,2.78,31.8,31.8,0,0,1-5.82,1.8,35,35,0,0,1-6.43.7,37,37,0,0,1-14.31-2.89,48.1,48.1,0,0,1-13-8.1A50.8,50.8,0,0,1,236,259.57a42.92,42.92,0,0,1-5.62-14.26,36.15,36.15,0,0,1-.63-7.74,32.74,32.74,0,0,1,1-7.23,30.64,30.64,0,0,1,2.44-6.52,29.23,29.23,0,0,1,3.74-5.62L246,207.51a28.64,28.64,0,0,0-3.76,5.65,31.29,31.29,0,0,0-2.45,6.57,33.29,33.29,0,0,0-1,7.29,36.91,36.91,0,0,0,.66,7.81,43.36,43.36,0,0,0,5.71,14.39,51.55,51.55,0,0,0,10.26,12,49,49,0,0,0,13.19,8.2,37.31,37.31,0,0,0,14.45,2.95,34.77,34.77,0,0,0,6.48-.69,31,31,0,0,0,5.87-1.8,29,29,0,0,0,5.15-2.79A28.12,28.12,0,0,0,305,263.45Z"/>
        <g class="cls-11">
          <path d="M305,263.45l-9.77,10.06a27.75,27.75,0,0,1-4.34,3.66,29.67,29.67,0,0,1-5.12,2.78,31.8,31.8,0,0,1-5.82,1.8,35,35,0,0,1-6.43.7,37,37,0,0,1-14.31-2.89,48.1,48.1,0,0,1-13-8.1A50.8,50.8,0,0,1,236,259.57a42.92,42.92,0,0,1-5.62-14.26,36.15,36.15,0,0,1-.63-7.74,32.74,32.74,0,0,1,1-7.23,30.64,30.64,0,0,1,2.44-6.52,29.23,29.23,0,0,1,3.74-5.62L246,207.51a28.64,28.64,0,0,0-3.76,5.65,31.29,31.29,0,0,0-2.45,6.57,33.29,33.29,0,0,0-1,7.29,36.91,36.91,0,0,0,.66,7.81,43.36,43.36,0,0,0,5.71,14.39,51.55,51.55,0,0,0,10.26,12,49,49,0,0,0,13.19,8.2,37.31,37.31,0,0,0,14.45,2.95,34.77,34.77,0,0,0,6.48-.69,31,31,0,0,0,5.87-1.8,29,29,0,0,0,5.15-2.79,28.12,28.12,0,0,0,4.38-3.67"/>
        </g>
      </g>
      <path d="M379.86,393a130.06,130.06,0,0,1-14.94,7.76,145.13,145.13,0,0,1-16.45,6.08,168.5,168.5,0,0,1-18,4.37c-.82.15-1.65.3-2.48.43s-1.67.27-2.5.38l-2.52.33c-.85.1-1.69.19-2.54.27l-1,.08-1,.08-1,.06-1,.05-1.58.06-1.57.06-1.58.06-1.59.06-1,.07-1,.06-1,.06-1,.05a166.91,166.91,0,0,1-26.16-.86,175.38,175.38,0,0,1-26.14-5,195.71,195.71,0,0,1-26-9,225,225,0,0,1-25.67-13,241.94,241.94,0,0,1-31.32-21.8,219.62,219.62,0,0,1-26.61-25.91A211.13,211.13,0,0,1,122.66,308a217.48,217.48,0,0,1-16.27-33.46,206.76,206.76,0,0,1-9.12-30.08,167.65,167.65,0,0,1-3.83-29.22A145.83,145.83,0,0,1,95,187.08a139.14,139.14,0,0,1,7-27q1.56-4.23,3.29-8.25c1.15-2.68,2.37-5.29,3.64-7.83s2.59-5,4-7.41c.69-1.2,1.39-2.38,2.11-3.55s1.44-2.32,2.19-3.45h0l-7.7,11.71c-1.49,2.25-2.91,4.57-4.28,7s-2.69,4.84-4,7.36-2.47,5.12-3.62,7.77-2.24,5.4-3.28,8.19a138.89,138.89,0,0,0-7,26.76,145,145,0,0,0-1.59,27.94,166.26,166.26,0,0,0,3.73,29,204.73,204.73,0,0,0,9,29.78,212.66,212.66,0,0,0,16,33.11,208.08,208.08,0,0,0,21.28,29.48,216.58,216.58,0,0,0,26.29,25.6A238.07,238.07,0,0,0,193,394.76a222.11,222.11,0,0,0,25.39,12.81,191.18,191.18,0,0,0,25.69,8.88A172.77,172.77,0,0,0,270,421.31a164.92,164.92,0,0,0,25.91.8l1-.06,1-.05,1-.07,1-.07,1.57-.07,1.56-.06c.52,0,1.05,0,1.57-.06l1.56-.06,1-.06,1-.06,1-.07,1-.09c.84-.08,1.68-.17,2.51-.27s1.67-.21,2.5-.33,1.66-.24,2.48-.38,1.65-.28,2.47-.44a166.1,166.1,0,0,0,17.81-4.36,146.08,146.08,0,0,0,16.32-6.06,129.89,129.89,0,0,0,14.83-7.73,122.28,122.28,0,0,0,13.35-9.37l10.9-8.8A123.91,123.91,0,0,1,379.86,393Z"/>
    </g>
  </g>
</svg>
